<?xml version="1.0" standalone="no"?>
<!DOCTYPE svg PUBLIC "-//W3C//DTD SVG 20010904//EN"
 "http://www.w3.org/TR/2001/REC-SVG-20010904/DTD/svg10.dtd">
<svg version="1.0" xmlns="http://www.w3.org/2000/svg"
 width="815.000000pt" height="815.000000pt" viewBox="0 0 815.000000 815.000000"
 preserveAspectRatio="xMidYMid meet">
<metadata>
Created by potrace 1.14, written by Peter Selinger 2001-2017
</metadata>
<g transform="translate(0.000000,815.000000) scale(0.100000,-0.100000)"
fill="#000000" stroke="none">
<path d="M5779 7826 c-2 -2 -58 -7 -123 -10 -66 -4 -122 -9 -125 -10 -3 -2
-33 -7 -66 -11 -105 -12 -273 -45 -388 -76 -674 -180 -1137 -582 -1360 -1180
-39 -105 -95 -295 -102 -347 -2 -18 -6 -36 -9 -40 -2 -4 -7 -29 -10 -56 -4
-27 -9 -52 -10 -55 -7 -11 -22 -162 -35 -331 -8 -113 -6 -3250 2 -3300 3 -19
9 -71 13 -115 4 -44 8 -82 9 -85 1 -3 5 -34 10 -70 5 -36 9 -67 10 -70 1 -3 5
-20 9 -38 4 -19 9 -43 11 -55 1 -12 8 -44 15 -72 6 -27 14 -59 16 -70 26 -130
185 -505 240 -566 8 -8 14 -19 14 -23 0 -4 32 -51 72 -104 172 -228 397 -404
683 -532 115 -52 324 -122 434 -145 9 -2 50 -11 91 -20 41 -9 91 -18 110 -21
19 -3 46 -7 60 -10 14 -2 48 -7 75 -9 28 -3 64 -7 80 -10 17 -3 68 -7 115 -11
47 -3 105 -7 130 -10 109 -9 469 -3 605 11 28 2 74 7 103 10 28 3 76 7 105 10
46 5 135 16 252 31 41 5 55 7 135 19 25 4 56 8 70 10 14 2 86 13 160 25 74 12
148 23 164 26 15 2 35 5 45 8 9 3 36 8 61 11 25 3 59 8 75 11 17 3 41 7 55 9
34 5 89 14 123 21 15 3 27 11 28 17 1 23 -3 253 -6 337 -1 47 -6 200 -9 340
-4 140 -9 320 -11 400 -2 80 -5 193 -6 253 -2 90 -5 107 -18 107 -17 0 -177
-28 -201 -35 -8 -2 -31 -6 -50 -9 -19 -3 -45 -8 -57 -10 -11 -3 -43 -8 -70
-12 -26 -3 -57 -8 -68 -10 -11 -2 -33 -6 -50 -9 -16 -3 -52 -10 -80 -15 -27
-5 -68 -12 -90 -15 -22 -3 -51 -8 -65 -10 -53 -9 -237 -36 -275 -41 -22 -2
-56 -6 -75 -9 -19 -2 -60 -7 -90 -10 -30 -4 -71 -8 -90 -11 -107 -12 -278 -19
-455 -18 -369 3 -588 63 -720 198 -94 96 -149 248 -172 475 -8 85 -8 3100 1
3206 14 178 39 286 91 390 82 168 226 252 509 299 151 26 530 26 746 2 19 -3
59 -7 88 -10 50 -6 248 -33 302 -41 24 -4 87 -13 140 -20 35 -5 472 -80 610
-105 63 -11 120 -18 126 -16 7 3 12 48 13 123 1 65 4 168 6 228 2 61 6 232 10
380 4 149 9 315 10 370 8 264 7 317 -5 325 -7 5 -38 11 -69 15 -30 4 -64 9
-76 11 -11 2 -47 8 -80 13 -33 5 -123 19 -200 31 -77 12 -151 23 -165 25 -14
2 -38 6 -55 9 -16 3 -47 8 -67 11 -21 3 -55 7 -75 10 -156 23 -215 30 -313 41
-36 4 -75 8 -88 10 -13 1 -53 5 -90 9 -37 3 -87 9 -112 11 -53 6 -546 14 -551
10z"/>
<path d="M1765 4873 c0 -1561 -4 -2867 -8 -2902 -15 -119 -53 -165 -154 -187
-82 -17 -451 -10 -628 12 -59 7 -313 50 -350 58 -8 2 -147 26 -172 30 -5 0 -8
-304 -9 -676 l0 -676 153 -51 c85 -28 202 -60 262 -70 97 -18 147 -24 291 -36
64 -5 407 -6 455 -1 22 3 74 7 115 10 116 9 146 14 282 41 226 46 492 161 658
285 330 247 537 629 599 1105 6 44 14 100 17 125 3 25 7 1333 8 2908 l2 2862
-761 0 -761 0 1 -2837z"/>
</g>
</svg>
